<svg width="112" height="42" viewBox="0 0 112 42" fill="none" xmlns="http://www.w3.org/2000/svg">
<g filter="url(#filter0_d_0_1)">
<path d="M13.419 26.3023H14.1167V27H13.419V26.3023ZM14.1167 26.3023H14.8144V27H14.1167V26.3023ZM12.7214 25.6047H13.419V26.3023H12.7214V25.6047ZM13.419 25.6047H14.1167V26.3023H13.419V25.6047ZM14.1167 25.6047H14.8144V26.3023H14.1167V25.6047ZM14.8144 25.6047H15.5121V26.3023H14.8144V25.6047ZM12.7214 24.907H13.419V25.6047H12.7214V24.907ZM12.7214 24.2093H13.419V24.907H12.7214V24.2093ZM13.419 24.2093H14.1167V24.907H13.419V24.2093ZM13.419 24.907H14.1167V25.6047H13.419V24.907ZM14.1167 24.907H14.8144V25.6047H14.1167V24.907ZM14.8144 24.907H15.5121V25.6047H14.8144V24.907ZM14.8144 24.2093H15.5121V24.907H14.8144V24.2093ZM14.1167 24.2093H14.8144V24.907H14.1167V24.2093ZM13.419 23.5116H14.1167V24.2093H13.419V23.5116ZM14.1167 23.5116H14.8144V24.2093H14.1167V23.5116ZM14.8144 23.5116H15.5121V24.2093H14.8144V23.5116ZM14.8144 22.814H15.5121V23.5116H14.8144V22.814ZM14.1167 22.814H14.8144V23.5116H14.1167V22.814ZM13.419 22.814H14.1167V23.5116H13.419V22.814ZM13.419 22.1163H14.1167V22.814H13.419V22.1163ZM13.419 21.4186H14.1167V22.1163H13.419V21.4186ZM13.419 20.7209H14.1167V21.4186H13.419V20.7209ZM13.419 20.0233H14.1167V20.7209H13.419V20.0233ZM13.419 19.3256H14.1167V20.0233H13.419V19.3256ZM14.1167 19.3256H14.8144V20.0233H14.1167V19.3256ZM14.8144 19.3256H15.5121V20.0233H14.8144V19.3256ZM14.8144 20.0233H15.5121V20.7209H14.8144V20.0233ZM14.8144 20.7209H15.5121V21.4186H14.8144V20.7209ZM14.8144 21.4186H15.5121V22.1163H14.8144V21.4186ZM14.1167 21.4186H14.8144V22.1163H14.1167V21.4186ZM14.1167 22.1163H14.8144V22.814H14.1167V22.1163ZM14.1167 20.7209H14.8144V21.4186H14.1167V20.7209ZM14.1167 20.0233H14.8144V20.7209H14.1167V20.0233ZM14.8144 22.1163H15.5121V22.814H14.8144V22.1163ZM14.8144 18.6279H15.5121V19.3256H14.8144V18.6279ZM14.8144 17.9302H15.5121V18.6279H14.8144V17.9302ZM14.8144 17.2326H15.5121V17.9302H14.8144V17.2326ZM14.8144 16.5349H15.5121V17.2326H14.8144V16.5349ZM14.8144 15.8372H15.5121V16.5349H14.8144V15.8372ZM13.419 15.8372H14.1167V16.5349H13.419V15.8372ZM14.1167 16.5349H14.8144V17.2326H14.1167V16.5349ZM14.1167 17.2326H14.8144V17.9302H14.1167V17.2326ZM14.1167 17.9302H14.8144V18.6279H14.1167V17.9302ZM14.1167 18.6279H14.8144V19.3256H14.1167V18.6279ZM13.419 18.6279H14.1167V19.3256H13.419V18.6279ZM13.419 17.9302H14.1167V18.6279H13.419V17.9302ZM13.419 17.2326H14.1167V17.9302H13.419V17.2326ZM13.419 16.5349H14.1167V17.2326H13.419V16.5349ZM14.1167 15.8372H14.8144V16.5349H14.1167V15.8372ZM12.7214 23.5116H13.419V24.2093H12.7214V23.5116ZM12.7214 22.814H13.419V23.5116H12.7214V22.814ZM12.7214 22.1163H13.419V22.814H12.7214V22.1163ZM12.7214 21.4186H13.419V22.1163H12.7214V21.4186ZM12.7214 20.7209H13.419V21.4186H12.7214V20.7209ZM12.7214 20.0233H13.419V20.7209H12.7214V20.0233ZM12.7214 19.3256H13.419V20.0233H12.7214V19.3256ZM12.7214 18.6279H13.419V19.3256H12.7214V18.6279ZM12.7214 17.9302H13.419V18.6279H12.7214V17.9302ZM12.7214 17.2326H13.419V17.9302H12.7214V17.2326ZM12.7214 15.8372H13.419V16.5349H12.7214V15.8372ZM12.7214 16.5349H13.419V17.2326H12.7214V16.5349ZM13.419 15.1395H14.1167V15.8372H13.419V15.1395ZM14.1167 15.1395H14.8144V15.8372H14.1167V15.1395ZM12.0237 16.5349H12.7214V17.2326H12.0237V16.5349ZM18.3028 25.6047H19.0004V26.3023H18.3028V25.6047ZM19.0004 25.6047H19.6981V26.3023H19.0004V25.6047ZM18.3028 24.907H19.0004V25.6047H18.3028V24.907ZM19.0004 24.2093H19.6981V24.907H19.0004V24.2093ZM19.0004 24.907H19.6981V25.6047H19.0004V24.907ZM19.6981 24.907H20.3958V25.6047H19.6981V24.907ZM20.3958 24.907H21.0935V25.6047H20.3958V24.907ZM20.3958 24.2093H21.0935V24.907H20.3958V24.2093ZM21.0935 24.907H21.7911V25.6047H21.0935V24.907ZM19.6981 24.2093H20.3958V24.907H19.6981V24.2093ZM19.0004 23.5116H19.6981V24.2093H19.0004V23.5116ZM19.6981 23.5116H20.3958V24.2093H19.6981V23.5116ZM20.3958 23.5116H21.0935V24.2093H20.3958V23.5116ZM20.3958 22.814H21.0935V23.5116H20.3958V22.814ZM19.6981 22.814H20.3958V23.5116H19.6981V22.814ZM19.0004 22.814H19.6981V23.5116H19.0004V22.814ZM19.0004 22.1163H19.6981V22.814H19.0004V22.1163ZM19.0004 21.4186H19.6981V22.1163H19.0004V21.4186ZM19.0004 20.7209H19.6981V21.4186H19.0004V20.7209ZM19.0004 20.0233H19.6981V20.7209H19.0004V20.0233ZM19.0004 19.3256H19.6981V20.0233H19.0004V19.3256ZM19.6981 19.3256H20.3958V20.0233H19.6981V19.3256ZM20.3958 19.3256H21.0935V20.0233H20.3958V19.3256ZM20.3958 20.0233H21.0935V20.7209H20.3958V20.0233ZM20.3958 20.7209H21.0935V21.4186H20.3958V20.7209ZM20.3958 21.4186H21.0935V22.1163H20.3958V21.4186ZM19.6981 21.4186H20.3958V22.1163H19.6981V21.4186ZM19.6981 22.1163H20.3958V22.814H19.6981V22.1163ZM19.6981 20.7209H20.3958V21.4186H19.6981V20.7209ZM19.6981 20.0233H20.3958V20.7209H19.6981V20.0233ZM20.3958 22.1163H21.0935V22.814H20.3958V22.1163ZM20.3958 18.6279H21.0935V19.3256H20.3958V18.6279ZM20.3958 17.9302H21.0935V18.6279H20.3958V17.9302ZM20.3958 17.2326H21.0935V17.9302H20.3958V17.2326ZM20.3958 16.5349H21.0935V17.2326H20.3958V16.5349ZM20.3958 15.8372H21.0935V16.5349H20.3958V15.8372ZM19.0004 15.8372H19.6981V16.5349H19.0004V15.8372ZM19.6981 16.5349H20.3958V17.2326H19.6981V16.5349ZM19.6981 17.2326H20.3958V17.9302H19.6981V17.2326ZM19.6981 17.9302H20.3958V18.6279H19.6981V17.9302ZM19.6981 18.6279H20.3958V19.3256H19.6981V18.6279ZM19.0004 18.6279H19.6981V19.3256H19.0004V18.6279ZM19.0004 17.9302H19.6981V18.6279H19.0004V17.9302ZM19.0004 17.2326H19.6981V17.9302H19.0004V17.2326ZM19.0004 16.5349H19.6981V17.2326H19.0004V16.5349ZM19.6981 15.8372H20.3958V16.5349H19.6981V15.8372ZM18.3028 22.814H19.0004V23.5116H18.3028V22.814ZM18.3028 22.1163H19.0004V22.814H18.3028V22.1163ZM18.3028 21.4186H19.0004V22.1163H18.3028V21.4186ZM18.3028 20.7209H19.0004V21.4186H18.3028V20.7209ZM18.3028 20.0233H19.0004V20.7209H18.3028V20.0233ZM18.3028 19.3256H19.0004V20.0233H18.3028V19.3256ZM18.3028 18.6279H19.0004V19.3256H18.3028V18.6279ZM18.3028 17.9302H19.0004V18.6279H18.3028V17.9302ZM18.3028 17.2326H19.0004V17.9302H18.3028V17.2326ZM18.3028 15.8372H19.0004V16.5349H18.3028V15.8372ZM18.3028 16.5349H19.0004V17.2326H18.3028V16.5349ZM21.7911 24.2093H22.4888V24.907H21.7911V24.2093ZM19.0004 15.1395H19.6981V15.8372H19.0004V15.1395ZM19.6981 15.1395H20.3958V15.8372H19.6981V15.1395ZM17.6051 16.5349H18.3028V17.2326H17.6051V16.5349ZM21.0935 16.5349H21.7911V17.2326H21.0935V16.5349ZM11.326 17.2326H12.0237V17.9302H11.326V17.2326ZM12.0237 17.2326H12.7214V17.9302H12.0237V17.2326ZM16.2097 16.5349H16.9074V17.2326H16.2097V16.5349ZM16.9074 16.5349H17.6051V17.2326H16.9074V16.5349ZM16.9074 15.8372H17.6051V16.5349H16.9074V15.8372ZM17.6051 15.8372H18.3028V16.5349H17.6051V15.8372ZM17.6051 15.1395H18.3028V15.8372H17.6051V15.1395ZM18.3028 15.1395H19.0004V15.8372H18.3028V15.1395ZM15.5121 16.5349H16.2097V17.2326H15.5121V16.5349ZM17.6051 17.2326H18.3028V17.9302H17.6051V17.2326ZM21.0935 24.2093H21.7911V24.907H21.0935V24.2093ZM11.326 16.5349H12.0237V17.2326H11.326V16.5349ZM21.7911 17.2326H22.4888V17.9302H21.7911V17.2326ZM21.0935 17.2326H21.7911V17.9302H21.0935V17.2326ZM21.7911 16.5349H22.4888V17.2326H21.7911V16.5349ZM16.9074 17.2326H17.6051V17.9302H16.9074V17.2326ZM16.2097 17.2326H16.9074V17.9302H16.2097V17.2326ZM15.5121 17.2326H16.2097V17.9302H15.5121V17.2326ZM12.7214 26.3023H13.419V27H12.7214V26.3023ZM18.3028 26.3023H19.0004V27H18.3028V26.3023ZM14.8144 26.3023H15.5121V27H14.8144V26.3023ZM14.8144 27H15.5121V27.6977H14.8144V27ZM14.8144 27.6977H15.5121V28.3953H14.8144V27.6977ZM14.8144 28.3953H15.5121V29.093H14.8144V28.3953ZM12.7214 30.4884H13.419V31.186H12.7214V30.4884ZM12.7214 29.7907H13.419V30.4884H12.7214V29.7907ZM12.7214 29.093H13.419V29.7907H12.7214V29.093ZM12.7214 28.3953H13.419V29.093H12.7214V28.3953ZM12.7214 27.6977H13.419V28.3953H12.7214V27.6977ZM12.7214 27H13.419V27.6977H12.7214V27ZM13.419 27H14.1167V27.6977H13.419V27ZM14.1167 27H14.8144V27.6977H14.1167V27ZM14.1167 27.6977H14.8144V28.3953H14.1167V27.6977ZM14.1167 28.3953H14.8144V29.093H14.1167V28.3953ZM13.419 28.3953H14.1167V29.093H13.419V28.3953ZM13.419 29.093H14.1167V29.7907H13.419V29.093ZM13.419 27.6977H14.1167V28.3953H13.419V27.6977ZM13.419 29.7907H14.1167V30.4884H13.419V29.7907ZM14.1167 29.093H14.8144V29.7907H14.1167V29.093ZM18.3028 24.2093H19.0004V24.907H18.3028V24.2093ZM18.3028 23.5116H19.0004V24.2093H18.3028V23.5116ZM15.5121 24.907H16.2097V25.6047H15.5121V24.907ZM16.2097 24.907H16.9074V25.6047H16.2097V24.907ZM16.9074 24.907H17.6051V25.6047H16.9074V24.907ZM17.6051 24.907H18.3028V25.6047H17.6051V24.907ZM17.6051 24.2093H18.3028V24.907H17.6051V24.2093ZM16.9074 24.2093H17.6051V24.907H16.9074V24.2093ZM16.2097 24.2093H16.9074V24.907H16.2097V24.2093ZM15.5121 24.2093H16.2097V24.907H15.5121V24.2093ZM21.7911 24.907H22.4888V25.6047H21.7911V24.907ZM12.0237 24.2093H12.7214V24.907H12.0237V24.2093ZM11.326 24.907H12.0237V25.6047H11.326V24.907ZM12.0237 24.907H12.7214V25.6047H12.0237V24.907ZM11.326 25.6047H12.0237V26.3023H11.326V25.6047ZM10.6283 26.3023H11.326V27H10.6283V26.3023ZM10.6283 25.6047H11.326V26.3023H10.6283V25.6047ZM12.0237 25.6047H12.7214V26.3023H12.0237V25.6047ZM11.326 26.3023H12.0237V27H11.326V26.3023ZM19.6981 25.6047H20.3958V26.3023H19.6981V25.6047ZM19.0004 26.3023H19.6981V27H19.0004V26.3023ZM12.0237 15.8372H12.7214V16.5349H12.0237V15.8372ZM12.7214 15.1395H13.419V15.8372H12.7214V15.1395ZM25.9635 17.9302H26.6612V18.6279H25.9635V17.9302ZM26.6612 17.9302H27.3589V18.6279H26.6612V17.9302ZM26.6612 18.6279H27.3589V19.3256H26.6612V18.6279ZM27.3589 17.9302H28.0566V18.6279H27.3589V17.9302ZM25.2659 17.9302H25.9635V18.6279H25.2659V17.9302ZM25.2659 18.6279H25.9635V19.3256H25.2659V18.6279ZM25.2659 20.0233H25.9635V20.7209H25.2659V20.0233ZM25.2659 20.7209H25.9635V21.4186H25.2659V20.7209ZM25.2659 21.4186H25.9635V22.1163H25.2659V21.4186ZM25.2659 22.1163H25.9635V22.814H25.2659V22.1163ZM25.2659 22.814H25.9635V23.5116H25.2659V22.814ZM25.2659 23.5116H25.9635V24.2093H25.2659V23.5116ZM25.9635 23.5116H26.6612V24.2093H25.9635V23.5116ZM26.6612 23.5116H27.3589V24.2093H26.6612V23.5116ZM26.6612 22.814H27.3589V23.5116H26.6612V22.814ZM27.3589 22.814H28.0566V23.5116H27.3589V22.814ZM27.3589 22.1163H28.0566V22.814H27.3589V22.1163ZM27.3589 20.7209H28.0566V21.4186H27.3589V20.7209ZM27.3589 20.0233H28.0566V20.7209H27.3589V20.0233ZM27.3589 19.3256H28.0566V20.0233H27.3589V19.3256ZM27.3589 18.6279H28.0566V19.3256H27.3589V18.6279ZM26.6612 19.3256H27.3589V20.0233H26.6612V19.3256ZM26.6612 20.0233H27.3589V20.7209H26.6612V20.0233ZM26.6612 20.7209H27.3589V21.4186H26.6612V20.7209ZM26.6612 21.4186H27.3589V22.1163H26.6612V21.4186ZM26.6612 22.1163H27.3589V22.814H26.6612V22.1163ZM27.3589 21.4186H28.0566V22.1163H27.3589V21.4186ZM25.9635 21.4186H26.6612V22.1163H25.9635V21.4186ZM25.9635 20.7209H26.6612V21.4186H25.9635V20.7209ZM25.9635 20.0233H26.6612V20.7209H25.9635V20.0233ZM25.9635 19.3256H26.6612V20.0233H25.9635V19.3256ZM25.9635 18.6279H26.6612V19.3256H25.9635V18.6279ZM25.2659 19.3256H25.9635V20.0233H25.2659V19.3256ZM25.9635 22.1163H26.6612V22.814H25.9635V22.1163ZM25.9635 22.814H26.6612V23.5116H25.9635V22.814ZM24.5682 24.907H25.2659V25.6047H24.5682V24.907ZM23.8705 24.907H24.5682V25.6047H23.8705V24.907ZM23.8705 24.2093H24.5682V24.907H23.8705V24.2093ZM24.5682 24.2093H25.2659V24.907H24.5682V24.2093ZM25.2659 24.2093H25.9635V24.907H25.2659V24.2093ZM25.2659 24.907H25.9635V25.6047H25.2659V24.907ZM25.9635 24.907H26.6612V25.6047H25.9635V24.907ZM26.6612 24.907H27.3589V25.6047H26.6612V24.907ZM27.3589 24.907H28.0566V25.6047H27.3589V24.907ZM27.3589 24.2093H28.0566V24.907H27.3589V24.2093ZM27.3589 23.5116H28.0566V24.2093H27.3589V23.5116ZM26.6612 24.2093H27.3589V24.907H26.6612V24.2093ZM25.9635 24.2093H26.6612V24.907H25.9635V24.2093ZM26.6612 25.6047H27.3589V26.3023H26.6612V25.6047ZM26.6612 26.3023H27.3589V27H26.6612V26.3023ZM27.3589 26.3023H28.0566V27H27.3589V26.3023ZM27.3589 25.6047H28.0566V26.3023H27.3589V25.6047ZM28.0566 24.907H28.7542V25.6047H28.0566V24.907ZM28.0566 24.2093H28.7542V24.907H28.0566V24.2093ZM28.7542 24.2093H29.4519V24.907H28.7542V24.2093ZM28.7542 24.907H29.4519V25.6047H28.7542V24.907ZM28.7542 25.6047H29.4519V26.3023H28.7542V25.6047ZM28.7542 26.3023H29.4519V27H28.7542V26.3023ZM28.0566 26.3023H28.7542V27H28.0566V26.3023ZM28.0566 25.6047H28.7542V26.3023H28.0566V25.6047ZM29.4519 24.2093H30.1496V24.907H29.4519V24.2093ZM30.1496 24.2093H30.8473V24.907H30.1496V24.2093ZM30.1496 24.907H30.8473V25.6047H30.1496V24.907ZM29.4519 24.907H30.1496V25.6047H29.4519V24.907ZM30.8473 24.2093H31.5449V24.907H30.8473V24.2093ZM31.5449 24.2093H32.2426V24.907H31.5449V24.2093ZM30.8473 24.907H31.5449V25.6047H30.8473V24.907ZM30.8473 23.5116H31.5449V24.2093H30.8473V23.5116ZM30.8473 22.814H31.5449V23.5116H30.8473V22.814ZM31.5449 22.814H32.2426V23.5116H31.5449V22.814ZM31.5449 23.5116H32.2426V24.2093H31.5449V23.5116ZM32.2426 22.814H32.9403V23.5116H32.2426V22.814ZM32.9403 22.1163H33.638V22.814H32.9403V22.1163ZM32.9403 21.4186H33.638V22.1163H32.9403V21.4186ZM32.9403 20.7209H33.638V21.4186H32.9403V20.7209ZM32.2426 20.7209H32.9403V21.4186H32.2426V20.7209ZM31.5449 20.7209H32.2426V21.4186H31.5449V20.7209ZM31.5449 21.4186H32.2426V22.1163H31.5449V21.4186ZM30.8473 21.4186H31.5449V22.1163H30.8473V21.4186ZM30.8473 22.1163H31.5449V22.814H30.8473V22.1163ZM31.5449 22.1163H32.2426V22.814H31.5449V22.1163ZM32.2426 22.1163H32.9403V22.814H32.2426V22.1163ZM32.2426 21.4186H32.9403V22.1163H32.2426V21.4186ZM30.8473 20.7209H31.5449V21.4186H30.8473V20.7209ZM30.8473 20.0233H31.5449V20.7209H30.8473V20.0233ZM31.5449 20.0233H32.2426V20.7209H31.5449V20.0233ZM31.5449 19.3256H32.2426V20.0233H31.5449V19.3256ZM32.2426 19.3256H32.9403V20.0233H32.2426V19.3256ZM32.9403 19.3256H33.638V20.0233H32.9403V19.3256ZM32.9403 20.0233H33.638V20.7209H32.9403V20.0233ZM32.2426 20.0233H32.9403V20.7209H32.2426V20.0233ZM30.8473 19.3256H31.5449V20.0233H30.8473V19.3256ZM30.8473 18.6279H31.5449V19.3256H30.8473V18.6279ZM31.5449 18.6279H32.2426V19.3256H31.5449V18.6279ZM31.5449 17.9302H32.2426V18.6279H31.5449V17.9302ZM32.2426 17.9302H32.9403V18.6279H32.2426V17.9302ZM32.9403 17.9302H33.638V18.6279H32.9403V17.9302ZM32.9403 18.6279H33.638V19.3256H32.9403V18.6279ZM32.2426 18.6279H32.9403V19.3256H32.2426V18.6279ZM30.8473 17.9302H31.5449V18.6279H30.8473V17.9302ZM28.0566 15.1395H28.7542V15.8372H28.0566V15.1395ZM28.0566 15.8372H28.7542V16.5349H28.0566V15.8372ZM28.7542 15.8372H29.4519V16.5349H28.7542V15.8372ZM28.7542 15.1395H29.4519V15.8372H28.7542V15.1395ZM27.3589 16.5349H28.0566V17.2326H27.3589V16.5349ZM26.6612 16.5349H27.3589V17.2326H26.6612V16.5349ZM27.3589 17.2326H28.0566V17.9302H27.3589V17.2326ZM26.6612 17.2326H27.3589V17.9302H26.6612V17.2326ZM29.4519 15.1395H30.1496V15.8372H29.4519V15.1395ZM30.1496 15.1395H30.8473V15.8372H30.1496V15.1395ZM30.1496 15.8372H30.8473V16.5349H30.1496V15.8372ZM29.4519 15.8372H30.1496V16.5349H29.4519V15.8372ZM30.8473 15.1395H31.5449V15.8372H30.8473V15.1395ZM31.5449 15.1395H32.2426V15.8372H31.5449V15.1395ZM31.5449 15.8372H32.2426V16.5349H31.5449V15.8372ZM30.8473 15.8372H31.5449V16.5349H30.8473V15.8372ZM33.638 17.2326H34.3356V17.9302H33.638V17.2326ZM33.638 16.5349H34.3356V17.2326H33.638V16.5349ZM34.3356 16.5349H35.0333V17.2326H34.3356V16.5349ZM34.3356 17.2326H35.0333V17.9302H34.3356V17.2326ZM32.9403 16.5349H33.638V17.2326H32.9403V16.5349ZM32.2426 16.5349H32.9403V17.2326H32.2426V16.5349ZM31.5449 16.5349H32.2426V17.2326H31.5449V16.5349ZM30.8473 16.5349H31.5449V17.2326H30.8473V16.5349ZM31.5449 17.2326H32.2426V17.9302H31.5449V17.2326ZM32.2426 17.2326H32.9403V17.9302H32.2426V17.2326ZM32.9403 17.2326H33.638V17.9302H32.9403V17.2326ZM30.8473 17.2326H31.5449V17.9302H30.8473V17.2326ZM25.9635 25.6047H26.6612V26.3023H25.9635V25.6047ZM32.2426 15.8372H32.9403V16.5349H32.2426V15.8372ZM25.9635 17.2326H26.6612V17.9302H25.9635V17.2326ZM29.4519 25.6047H30.1496V26.3023H29.4519V25.6047ZM32.2426 23.5116H32.9403V24.2093H32.2426V23.5116ZM32.9403 22.814H33.638V23.5116H32.9403V22.814ZM32.9403 23.5116H33.638V24.2093H32.9403V23.5116ZM32.9403 24.2093H33.638V24.907H32.9403V24.2093ZM32.2426 24.2093H32.9403V24.907H32.2426V24.2093ZM33.638 24.2093H34.3356V24.907H33.638V24.2093ZM34.3356 24.2093H35.0333V24.907H34.3356V24.2093ZM34.3356 24.907H35.0333V25.6047H34.3356V24.907ZM33.638 24.907H34.3356V25.6047H33.638V24.907ZM32.2426 24.907H32.9403V25.6047H32.2426V24.907ZM31.5449 24.907H32.2426V25.6047H31.5449V24.907ZM32.9403 24.907H33.638V25.6047H32.9403V24.907ZM32.2426 25.6047H32.9403V26.3023H32.2426V25.6047ZM31.5449 25.6047H32.2426V26.3023H31.5449V25.6047ZM32.9403 25.6047H33.638V26.3023H32.9403V25.6047ZM33.638 25.6047H34.3356V26.3023H33.638V25.6047ZM32.9403 26.3023H33.638V27H32.9403V26.3023ZM31.5449 26.3023H32.2426V27H31.5449V26.3023ZM32.2426 26.3023H32.9403V27H32.2426V26.3023ZM27.3589 15.8372H28.0566V16.5349H27.3589V15.8372ZM38.5319 26.3023H39.2296V27H38.5319V26.3023ZM39.2296 26.3023H39.9273V27H39.2296V26.3023ZM37.8342 25.6047H38.5319V26.3023H37.8342V25.6047ZM38.5319 25.6047H39.2296V26.3023H38.5319V25.6047ZM39.2296 25.6047H39.9273V26.3023H39.2296V25.6047ZM39.9273 25.6047H40.6249V26.3023H39.9273V25.6047ZM37.1366 24.907H37.8342V25.6047H37.1366V24.907ZM37.8342 24.907H38.5319V25.6047H37.8342V24.907ZM37.8342 24.2093H38.5319V24.907H37.8342V24.2093ZM38.5319 24.2093H39.2296V24.907H38.5319V24.2093ZM38.5319 24.907H39.2296V25.6047H38.5319V24.907ZM39.2296 24.907H39.9273V25.6047H39.2296V24.907ZM39.9273 24.907H40.6249V25.6047H39.9273V24.907ZM39.9273 24.2093H40.6249V24.907H39.9273V24.2093ZM40.6249 24.907H41.3226V25.6047H40.6249V24.907ZM39.2296 24.2093H39.9273V24.907H39.2296V24.2093ZM38.5319 23.5116H39.2296V24.2093H38.5319V23.5116ZM39.2296 23.5116H39.9273V24.2093H39.2296V23.5116ZM39.9273 23.5116H40.6249V24.2093H39.9273V23.5116ZM39.9273 22.814H40.6249V23.5116H39.9273V22.814ZM39.2296 22.814H39.9273V23.5116H39.2296V22.814ZM38.5319 22.814H39.2296V23.5116H38.5319V22.814ZM38.5319 22.1163H39.2296V22.814H38.5319V22.1163ZM38.5319 21.4186H39.2296V22.1163H38.5319V21.4186ZM38.5319 20.7209H39.2296V21.4186H38.5319V20.7209ZM38.5319 20.0233H39.2296V20.7209H38.5319V20.0233ZM38.5319 19.3256H39.2296V20.0233H38.5319V19.3256ZM39.2296 19.3256H39.9273V20.0233H39.2296V19.3256ZM39.9273 19.3256H40.6249V20.0233H39.9273V19.3256ZM39.9273 20.0233H40.6249V20.7209H39.9273V20.0233ZM39.9273 20.7209H40.6249V21.4186H39.9273V20.7209ZM39.9273 21.4186H40.6249V22.1163H39.9273V21.4186ZM39.2296 21.4186H39.9273V22.1163H39.2296V21.4186ZM39.2296 22.1163H39.9273V22.814H39.2296V22.1163ZM39.2296 20.7209H39.9273V21.4186H39.2296V20.7209ZM39.2296 20.0233H39.9273V20.7209H39.2296V20.0233ZM39.9273 22.1163H40.6249V22.814H39.9273V22.1163ZM39.9273 18.6279H40.6249V19.3256H39.9273V18.6279ZM39.9273 17.9302H40.6249V18.6279H39.9273V17.9302ZM39.9273 17.2326H40.6249V17.9302H39.9273V17.2326ZM39.9273 16.5349H40.6249V17.2326H39.9273V16.5349ZM38.5319 15.8372H39.2296V16.5349H38.5319V15.8372ZM39.2296 16.5349H39.9273V17.2326H39.2296V16.5349ZM39.2296 17.2326H39.9273V17.9302H39.2296V17.2326ZM39.2296 17.9302H39.9273V18.6279H39.2296V17.9302ZM39.2296 18.6279H39.9273V19.3256H39.2296V18.6279ZM38.5319 18.6279H39.2296V19.3256H38.5319V18.6279ZM38.5319 17.9302H39.2296V18.6279H38.5319V17.9302ZM38.5319 17.2326H39.2296V17.9302H38.5319V17.2326ZM38.5319 16.5349H39.2296V17.2326H38.5319V16.5349ZM37.8342 23.5116H38.5319V24.2093H37.8342V23.5116ZM37.8342 22.814H38.5319V23.5116H37.8342V22.814ZM37.8342 22.1163H38.5319V22.814H37.8342V22.1163ZM37.8342 21.4186H38.5319V22.1163H37.8342V21.4186ZM37.8342 20.7209H38.5319V21.4186H37.8342V20.7209ZM37.8342 20.0233H38.5319V20.7209H37.8342V20.0233ZM37.8342 19.3256H38.5319V20.0233H37.8342V19.3256ZM37.8342 18.6279H38.5319V19.3256H37.8342V18.6279ZM37.8342 17.9302H38.5319V18.6279H37.8342V17.9302ZM37.8342 17.2326H38.5319V17.9302H37.8342V17.2326ZM37.8342 15.8372H38.5319V16.5349H37.8342V15.8372ZM37.8342 16.5349H38.5319V17.2326H37.8342V16.5349ZM37.1366 16.5349H37.8342V17.2326H37.1366V16.5349ZM36.4389 17.2326H37.1366V17.9302H36.4389V17.2326ZM37.1366 17.2326H37.8342V17.9302H37.1366V17.2326ZM36.4389 24.2093H37.1366V24.907H36.4389V24.2093ZM37.1366 24.2093H37.8342V24.907H37.1366V24.2093ZM36.4389 16.5349H37.1366V17.2326H36.4389V16.5349ZM40.6249 24.2093H41.3226V24.907H40.6249V24.2093ZM36.4389 24.907H37.1366V25.6047H36.4389V24.907ZM37.8342 26.3023H38.5319V27H37.8342V26.3023ZM37.1366 15.8372H37.8342V16.5349H37.1366V15.8372ZM40.6249 15.8372H41.3226V16.5349H40.6249V15.8372ZM41.3226 15.1395H42.0203V15.8372H41.3226V15.1395ZM41.3226 15.8372H42.0203V16.5349H41.3226V15.8372ZM42.0203 15.8372H42.718V16.5349H42.0203V15.8372ZM42.0203 15.1395H42.718V15.8372H42.0203V15.1395ZM42.718 15.1395H43.4156V15.8372H42.718V15.1395ZM42.718 15.8372H43.4156V16.5349H42.718V15.8372ZM43.4156 15.8372H44.1133V16.5349H43.4156V15.8372ZM43.4156 15.1395H44.1133V15.8372H43.4156V15.1395ZM44.1133 15.8372H44.811V16.5349H44.1133V15.8372ZM42.718 16.5349H43.4156V17.2326H42.718V16.5349ZM42.0203 16.5349H42.718V17.2326H42.0203V16.5349ZM42.718 17.2326H43.4156V17.9302H42.718V17.2326ZM43.4156 17.2326H44.1133V17.9302H43.4156V17.2326ZM44.1133 17.2326H44.811V17.9302H44.1133V17.2326ZM44.1133 16.5349H44.811V17.2326H44.1133V16.5349ZM43.4156 16.5349H44.1133V17.2326H43.4156V16.5349ZM38.5319 15.1395H39.2296V15.8372H38.5319V15.1395ZM37.8342 15.1395H38.5319V15.8372H37.8342V15.1395ZM40.6249 16.5349H41.3226V17.2326H40.6249V16.5349ZM39.9273 15.8372H40.6249V16.5349H39.9273V15.8372ZM40.6249 15.1395H41.3226V15.8372H40.6249V15.1395ZM47.6139 17.9302H48.3116V18.6279H47.6139V17.9302ZM48.3116 17.9302H49.0093V18.6279H48.3116V17.9302ZM48.3116 18.6279H49.0093V19.3256H48.3116V18.6279ZM49.0093 17.9302H49.707V18.6279H49.0093V17.9302ZM46.9163 17.9302H47.6139V18.6279H46.9163V17.9302ZM46.9163 18.6279H47.6139V19.3256H46.9163V18.6279ZM46.9163 20.0233H47.6139V20.7209H46.9163V20.0233ZM46.9163 20.7209H47.6139V21.4186H46.9163V20.7209ZM46.9163 21.4186H47.6139V22.1163H46.9163V21.4186ZM46.9163 22.1163H47.6139V22.814H46.9163V22.1163ZM46.9163 22.814H47.6139V23.5116H46.9163V22.814ZM46.9163 23.5116H47.6139V24.2093H46.9163V23.5116ZM47.6139 23.5116H48.3116V24.2093H47.6139V23.5116ZM48.3116 23.5116H49.0093V24.2093H48.3116V23.5116ZM48.3116 22.814H49.0093V23.5116H48.3116V22.814ZM49.0093 22.814H49.707V23.5116H49.0093V22.814ZM49.0093 22.1163H49.707V22.814H49.0093V22.1163ZM49.0093 20.7209H49.707V21.4186H49.0093V20.7209ZM49.0093 20.0233H49.707V20.7209H49.0093V20.0233ZM49.0093 19.3256H49.707V20.0233H49.0093V19.3256ZM49.0093 18.6279H49.707V19.3256H49.0093V18.6279ZM48.3116 19.3256H49.0093V20.0233H48.3116V19.3256ZM48.3116 20.0233H49.0093V20.7209H48.3116V20.0233ZM48.3116 20.7209H49.0093V21.4186H48.3116V20.7209ZM48.3116 21.4186H49.0093V22.1163H48.3116V21.4186ZM48.3116 22.1163H49.0093V22.814H48.3116V22.1163ZM49.0093 21.4186H49.707V22.1163H49.0093V21.4186ZM47.6139 21.4186H48.3116V22.1163H47.6139V21.4186ZM47.6139 20.7209H48.3116V21.4186H47.6139V20.7209ZM47.6139 20.0233H48.3116V20.7209H47.6139V20.0233ZM47.6139 19.3256H48.3116V20.0233H47.6139V19.3256ZM47.6139 18.6279H48.3116V19.3256H47.6139V18.6279ZM46.9163 19.3256H47.6139V20.0233H46.9163V19.3256ZM47.6139 22.1163H48.3116V22.814H47.6139V22.1163ZM47.6139 22.814H48.3116V23.5116H47.6139V22.814ZM46.2186 24.907H46.9163V25.6047H46.2186V24.907ZM45.5209 24.907H46.2186V25.6047H45.5209V24.907ZM45.5209 24.2093H46.2186V24.907H45.5209V24.2093ZM46.2186 24.2093H46.9163V24.907H46.2186V24.2093ZM46.9163 24.2093H47.6139V24.907H46.9163V24.2093ZM46.9163 24.907H47.6139V25.6047H46.9163V24.907ZM47.6139 24.907H48.3116V25.6047H47.6139V24.907ZM48.3116 24.907H49.0093V25.6047H48.3116V24.907ZM49.0093 24.907H49.707V25.6047H49.0093V24.907ZM49.0093 24.2093H49.707V24.907H49.0093V24.2093ZM49.0093 23.5116H49.707V24.2093H49.0093V23.5116ZM48.3116 24.2093H49.0093V24.907H48.3116V24.2093ZM47.6139 24.2093H48.3116V24.907H47.6139V24.2093ZM48.3116 25.6047H49.0093V26.3023H48.3116V25.6047ZM48.3116 26.3023H49.0093V27H48.3116V26.3023ZM49.0093 26.3023H49.707V27H49.0093V26.3023ZM49.0093 25.6047H49.707V26.3023H49.0093V25.6047ZM49.707 24.907H50.4046V25.6047H49.707V24.907ZM49.707 24.2093H50.4046V24.907H49.707V24.2093ZM50.4046 24.2093H51.1023V24.907H50.4046V24.2093ZM50.4046 24.907H51.1023V25.6047H50.4046V24.907ZM50.4046 25.6047H51.1023V26.3023H50.4046V25.6047ZM50.4046 26.3023H51.1023V27H50.4046V26.3023ZM49.707 26.3023H50.4046V27H49.707V26.3023ZM49.707 25.6047H50.4046V26.3023H49.707V25.6047ZM51.1023 24.2093H51.8V24.907H51.1023V24.2093ZM51.8 24.2093H52.4977V24.907H51.8V24.2093ZM51.8 24.907H52.4977V25.6047H51.8V24.907ZM51.1023 24.907H51.8V25.6047H51.1023V24.907ZM52.4977 24.2093H53.1953V24.907H52.4977V24.2093ZM53.1953 24.2093H53.893V24.907H53.1953V24.2093ZM52.4977 24.907H53.1953V25.6047H52.4977V24.907ZM52.4977 23.5116H53.1953V24.2093H52.4977V23.5116ZM52.4977 22.814H53.1953V23.5116H52.4977V22.814ZM53.1953 22.814H53.893V23.5116H53.1953V22.814ZM53.1953 23.5116H53.893V24.2093H53.1953V23.5116ZM53.893 22.814H54.5907V23.5116H53.893V22.814ZM54.5907 22.1163H55.2884V22.814H54.5907V22.1163ZM54.5907 21.4186H55.2884V22.1163H54.5907V21.4186ZM54.5907 20.7209H55.2884V21.4186H54.5907V20.7209ZM53.893 20.7209H54.5907V21.4186H53.893V20.7209ZM53.1953 20.7209H53.893V21.4186H53.1953V20.7209ZM53.1953 21.4186H53.893V22.1163H53.1953V21.4186ZM52.4977 21.4186H53.1953V22.1163H52.4977V21.4186ZM52.4977 22.1163H53.1953V22.814H52.4977V22.1163ZM53.1953 22.1163H53.893V22.814H53.1953V22.1163ZM53.893 22.1163H54.5907V22.814H53.893V22.1163ZM53.893 21.4186H54.5907V22.1163H53.893V21.4186ZM52.4977 20.7209H53.1953V21.4186H52.4977V20.7209ZM52.4977 20.0233H53.1953V20.7209H52.4977V20.0233ZM53.1953 20.0233H53.893V20.7209H53.1953V20.0233ZM53.1953 19.3256H53.893V20.0233H53.1953V19.3256ZM53.893 19.3256H54.5907V20.0233H53.893V19.3256ZM54.5907 19.3256H55.2884V20.0233H54.5907V19.3256ZM54.5907 20.0233H55.2884V20.7209H54.5907V20.0233ZM53.893 20.0233H54.5907V20.7209H53.893V20.0233ZM52.4977 19.3256H53.1953V20.0233H52.4977V19.3256ZM52.4977 18.6279H53.1953V19.3256H52.4977V18.6279ZM53.1953 18.6279H53.893V19.3256H53.1953V18.6279ZM53.1953 17.9302H53.893V18.6279H53.1953V17.9302ZM53.893 17.9302H54.5907V18.6279H53.893V17.9302ZM54.5907 17.9302H55.2884V18.6279H54.5907V17.9302ZM54.5907 18.6279H55.2884V19.3256H54.5907V18.6279ZM53.893 18.6279H54.5907V19.3256H53.893V18.6279ZM52.4977 17.9302H53.1953V18.6279H52.4977V17.9302ZM49.707 15.1395H50.4046V15.8372H49.707V15.1395ZM49.707 15.8372H50.4046V16.5349H49.707V15.8372ZM50.4046 15.8372H51.1023V16.5349H50.4046V15.8372ZM50.4046 15.1395H51.1023V15.8372H50.4046V15.1395ZM49.0093 16.5349H49.707V17.2326H49.0093V16.5349ZM48.3116 16.5349H49.0093V17.2326H48.3116V16.5349ZM49.0093 17.2326H49.707V17.9302H49.0093V17.2326ZM48.3116 17.2326H49.0093V17.9302H48.3116V17.2326ZM51.1023 15.1395H51.8V15.8372H51.1023V15.1395ZM51.8 15.1395H52.4977V15.8372H51.8V15.1395ZM51.8 15.8372H52.4977V16.5349H51.8V15.8372ZM51.1023 15.8372H51.8V16.5349H51.1023V15.8372ZM52.4977 15.1395H53.1953V15.8372H52.4977V15.1395ZM53.1953 15.1395H53.893V15.8372H53.1953V15.1395ZM53.1953 15.8372H53.893V16.5349H53.1953V15.8372ZM52.4977 15.8372H53.1953V16.5349H52.4977V15.8372ZM55.2884 17.2326H55.986V17.9302H55.2884V17.2326ZM55.2884 16.5349H55.986V17.2326H55.2884V16.5349ZM55.986 16.5349H56.6837V17.2326H55.986V16.5349ZM55.986 17.2326H56.6837V17.9302H55.986V17.2326ZM54.5907 16.5349H55.2884V17.2326H54.5907V16.5349ZM53.893 16.5349H54.5907V17.2326H53.893V16.5349ZM53.1953 16.5349H53.893V17.2326H53.1953V16.5349ZM52.4977 16.5349H53.1953V17.2326H52.4977V16.5349ZM53.1953 17.2326H53.893V17.9302H53.1953V17.2326ZM53.893 17.2326H54.5907V17.9302H53.893V17.2326ZM54.5907 17.2326H55.2884V17.9302H54.5907V17.2326ZM52.4977 17.2326H53.1953V17.9302H52.4977V17.2326ZM47.6139 25.6047H48.3116V26.3023H47.6139V25.6047ZM53.893 15.8372H54.5907V16.5349H53.893V15.8372ZM47.6139 17.2326H48.3116V17.9302H47.6139V17.2326ZM51.1023 25.6047H51.8V26.3023H51.1023V25.6047ZM53.893 23.5116H54.5907V24.2093H53.893V23.5116ZM54.5907 22.814H55.2884V23.5116H54.5907V22.814ZM54.5907 23.5116H55.2884V24.2093H54.5907V23.5116ZM54.5907 24.2093H55.2884V24.907H54.5907V24.2093ZM53.893 24.2093H54.5907V24.907H53.893V24.2093ZM55.2884 24.2093H55.986V24.907H55.2884V24.2093ZM55.986 24.2093H56.6837V24.907H55.986V24.2093ZM55.986 24.907H56.6837V25.6047H55.986V24.907ZM55.2884 24.907H55.986V25.6047H55.2884V24.907ZM53.893 24.907H54.5907V25.6047H53.893V24.907ZM53.1953 24.907H53.893V25.6047H53.1953V24.907ZM54.5907 24.907H55.2884V25.6047H54.5907V24.907ZM53.893 25.6047H54.5907V26.3023H53.893V25.6047ZM53.1953 25.6047H53.893V26.3023H53.1953V25.6047ZM54.5907 25.6047H55.2884V26.3023H54.5907V25.6047ZM55.2884 25.6047H55.986V26.3023H55.2884V25.6047ZM54.5907 26.3023H55.2884V27H54.5907V26.3023ZM53.1953 26.3023H53.893V27H53.1953V26.3023ZM53.893 26.3023H54.5907V27H53.893V26.3023ZM49.0093 15.8372H49.707V16.5349H49.0093V15.8372ZM60.1823 26.3023H60.88V27H60.1823V26.3023ZM60.88 26.3023H61.5776V27H60.88V26.3023ZM59.4846 25.6047H60.1823V26.3023H59.4846V25.6047ZM60.1823 25.6047H60.88V26.3023H60.1823V25.6047ZM60.88 25.6047H61.5776V26.3023H60.88V25.6047ZM61.5776 25.6047H62.2753V26.3023H61.5776V25.6047ZM58.787 24.907H59.4846V25.6047H58.787V24.907ZM59.4846 24.907H60.1823V25.6047H59.4846V24.907ZM59.4846 24.2093H60.1823V24.907H59.4846V24.2093ZM60.1823 24.2093H60.88V24.907H60.1823V24.2093ZM60.1823 24.907H60.88V25.6047H60.1823V24.907ZM60.88 24.907H61.5776V25.6047H60.88V24.907ZM61.5776 24.907H62.2753V25.6047H61.5776V24.907ZM61.5776 24.2093H62.2753V24.907H61.5776V24.2093ZM62.2753 24.907H62.973V25.6047H62.2753V24.907ZM60.88 24.2093H61.5776V24.907H60.88V24.2093ZM60.1823 23.5116H60.88V24.2093H60.1823V23.5116ZM60.88 23.5116H61.5776V24.2093H60.88V23.5116ZM61.5776 23.5116H62.2753V24.2093H61.5776V23.5116ZM61.5776 22.814H62.2753V23.5116H61.5776V22.814ZM60.88 22.814H61.5776V23.5116H60.88V22.814ZM60.1823 22.814H60.88V23.5116H60.1823V22.814ZM60.1823 22.1163H60.88V22.814H60.1823V22.1163ZM60.1823 21.4186H60.88V22.1163H60.1823V21.4186ZM60.1823 20.7209H60.88V21.4186H60.1823V20.7209ZM60.1823 20.0233H60.88V20.7209H60.1823V20.0233ZM60.1823 19.3256H60.88V20.0233H60.1823V19.3256ZM60.88 19.3256H61.5776V20.0233H60.88V19.3256ZM61.5776 19.3256H62.2753V20.0233H61.5776V19.3256ZM61.5776 20.0233H62.2753V20.7209H61.5776V20.0233ZM61.5776 20.7209H62.2753V21.4186H61.5776V20.7209ZM61.5776 21.4186H62.2753V22.1163H61.5776V21.4186ZM60.88 21.4186H61.5776V22.1163H60.88V21.4186ZM60.88 22.1163H61.5776V22.814H60.88V22.1163ZM60.88 20.7209H61.5776V21.4186H60.88V20.7209ZM60.88 20.0233H61.5776V20.7209H60.88V20.0233ZM61.5776 22.1163H62.2753V22.814H61.5776V22.1163ZM61.5776 18.6279H62.2753V19.3256H61.5776V18.6279ZM61.5776 17.9302H62.2753V18.6279H61.5776V17.9302ZM61.5776 17.2326H62.2753V17.9302H61.5776V17.2326ZM61.5776 16.5349H62.2753V17.2326H61.5776V16.5349ZM61.5776 15.8372H62.2753V16.5349H61.5776V15.8372ZM60.1823 15.8372H60.88V16.5349H60.1823V15.8372ZM60.88 16.5349H61.5776V17.2326H60.88V16.5349ZM60.88 17.2326H61.5776V17.9302H60.88V17.2326ZM60.88 17.9302H61.5776V18.6279H60.88V17.9302ZM60.88 18.6279H61.5776V19.3256H60.88V18.6279ZM60.1823 18.6279H60.88V19.3256H60.1823V18.6279ZM60.1823 17.9302H60.88V18.6279H60.1823V17.9302ZM60.1823 17.2326H60.88V17.9302H60.1823V17.2326ZM60.1823 16.5349H60.88V17.2326H60.1823V16.5349ZM60.88 15.8372H61.5776V16.5349H60.88V15.8372ZM59.4846 23.5116H60.1823V24.2093H59.4846V23.5116ZM59.4846 22.814H60.1823V23.5116H59.4846V22.814ZM59.4846 22.1163H60.1823V22.814H59.4846V22.1163ZM59.4846 21.4186H60.1823V22.1163H59.4846V21.4186ZM59.4846 20.7209H60.1823V21.4186H59.4846V20.7209ZM59.4846 20.0233H60.1823V20.7209H59.4846V20.0233ZM59.4846 19.3256H60.1823V20.0233H59.4846V19.3256ZM59.4846 18.6279H60.1823V19.3256H59.4846V18.6279ZM59.4846 17.9302H60.1823V18.6279H59.4846V17.9302ZM59.4846 17.2326H60.1823V17.9302H59.4846V17.2326ZM59.4846 15.8372H60.1823V16.5349H59.4846V15.8372ZM59.4846 16.5349H60.1823V17.2326H59.4846V16.5349ZM60.1823 15.1395H60.88V15.8372H60.1823V15.1395ZM60.88 15.1395H61.5776V15.8372H60.88V15.1395ZM58.787 16.5349H59.4846V17.2326H58.787V16.5349ZM65.7637 26.3023H66.4614V27H65.7637V26.3023ZM66.4614 26.3023H67.159V27H66.4614V26.3023ZM65.066 25.6047H65.7637V26.3023H65.066V25.6047ZM65.7637 25.6047H66.4614V26.3023H65.7637V25.6047ZM66.4614 25.6047H67.159V26.3023H66.4614V25.6047ZM67.159 25.6047H67.8567V26.3023H67.159V25.6047ZM64.3683 24.907H65.066V25.6047H64.3683V24.907ZM65.066 24.907H65.7637V25.6047H65.066V24.907ZM65.066 24.2093H65.7637V24.907H65.066V24.2093ZM65.7637 24.2093H66.4614V24.907H65.7637V24.2093ZM65.7637 24.907H66.4614V25.6047H65.7637V24.907ZM66.4614 24.907H67.159V25.6047H66.4614V24.907ZM67.159 24.907H67.8567V25.6047H67.159V24.907ZM67.159 24.2093H67.8567V24.907H67.159V24.2093ZM67.8567 24.907H68.5544V25.6047H67.8567V24.907ZM66.4614 24.2093H67.159V24.907H66.4614V24.2093ZM65.7637 23.5116H66.4614V24.2093H65.7637V23.5116ZM66.4614 23.5116H67.159V24.2093H66.4614V23.5116ZM67.159 23.5116H67.8567V24.2093H67.159V23.5116ZM67.159 22.814H67.8567V23.5116H67.159V22.814ZM66.4614 22.814H67.159V23.5116H66.4614V22.814ZM65.7637 22.814H66.4614V23.5116H65.7637V22.814ZM65.7637 22.1163H66.4614V22.814H65.7637V22.1163ZM65.7637 21.4186H66.4614V22.1163H65.7637V21.4186ZM65.7637 20.7209H66.4614V21.4186H65.7637V20.7209ZM65.7637 20.0233H66.4614V20.7209H65.7637V20.0233ZM65.7637 19.3256H66.4614V20.0233H65.7637V19.3256ZM66.4614 19.3256H67.159V20.0233H66.4614V19.3256ZM67.159 19.3256H67.8567V20.0233H67.159V19.3256ZM67.159 20.0233H67.8567V20.7209H67.159V20.0233ZM67.159 20.7209H67.8567V21.4186H67.159V20.7209ZM67.159 21.4186H67.8567V22.1163H67.159V21.4186ZM66.4614 21.4186H67.159V22.1163H66.4614V21.4186ZM66.4614 22.1163H67.159V22.814H66.4614V22.1163ZM66.4614 20.7209H67.159V21.4186H66.4614V20.7209ZM66.4614 20.0233H67.159V20.7209H66.4614V20.0233ZM67.159 22.1163H67.8567V22.814H67.159V22.1163ZM67.159 18.6279H67.8567V19.3256H67.159V18.6279ZM67.159 17.9302H67.8567V18.6279H67.159V17.9302ZM67.159 17.2326H67.8567V17.9302H67.159V17.2326ZM67.159 16.5349H67.8567V17.2326H67.159V16.5349ZM67.159 15.8372H67.8567V16.5349H67.159V15.8372ZM65.7637 15.8372H66.4614V16.5349H65.7637V15.8372ZM66.4614 16.5349H67.159V17.2326H66.4614V16.5349ZM66.4614 17.2326H67.159V17.9302H66.4614V17.2326ZM66.4614 17.9302H67.159V18.6279H66.4614V17.9302ZM66.4614 18.6279H67.159V19.3256H66.4614V18.6279ZM65.7637 18.6279H66.4614V19.3256H65.7637V18.6279ZM65.7637 17.9302H66.4614V18.6279H65.7637V17.9302ZM65.7637 17.2326H66.4614V17.9302H65.7637V17.2326ZM65.7637 16.5349H66.4614V17.2326H65.7637V16.5349ZM66.4614 15.8372H67.159V16.5349H66.4614V15.8372ZM65.066 23.5116H65.7637V24.2093H65.066V23.5116ZM65.066 22.814H65.7637V23.5116H65.066V22.814ZM65.066 22.1163H65.7637V22.814H65.066V22.1163ZM65.066 21.4186H65.7637V22.1163H65.066V21.4186ZM65.066 20.7209H65.7637V21.4186H65.066V20.7209ZM65.066 20.0233H65.7637V20.7209H65.066V20.0233ZM65.066 19.3256H65.7637V20.0233H65.066V19.3256ZM65.066 18.6279H65.7637V19.3256H65.066V18.6279ZM65.066 17.9302H65.7637V18.6279H65.066V17.9302ZM65.066 17.2326H65.7637V17.9302H65.066V17.2326ZM65.066 15.8372H65.7637V16.5349H65.066V15.8372ZM65.066 16.5349H65.7637V17.2326H65.066V16.5349ZM68.5544 24.2093H69.2521V24.907H68.5544V24.2093ZM65.7637 15.1395H66.4614V15.8372H65.7637V15.1395ZM66.4614 15.1395H67.159V15.8372H66.4614V15.1395ZM64.3683 16.5349H65.066V17.2326H64.3683V16.5349ZM67.8567 16.5349H68.5544V17.2326H67.8567V16.5349ZM58.0893 17.2326H58.787V17.9302H58.0893V17.2326ZM58.787 17.2326H59.4846V17.9302H58.787V17.2326ZM62.973 16.5349H63.6707V17.2326H62.973V16.5349ZM63.6707 16.5349H64.3683V17.2326H63.6707V16.5349ZM63.6707 15.8372H64.3683V16.5349H63.6707V15.8372ZM64.3683 15.8372H65.066V16.5349H64.3683V15.8372ZM64.3683 15.1395H65.066V15.8372H64.3683V15.1395ZM65.066 15.1395H65.7637V15.8372H65.066V15.1395ZM62.2753 16.5349H62.973V17.2326H62.2753V16.5349ZM64.3683 17.2326H65.066V17.9302H64.3683V17.2326ZM58.0893 24.2093H58.787V24.907H58.0893V24.2093ZM58.787 24.2093H59.4846V24.907H58.787V24.2093ZM63.6707 24.2093H64.3683V24.907H63.6707V24.2093ZM64.3683 24.2093H65.066V24.907H64.3683V24.2093ZM67.8567 24.2093H68.5544V24.907H67.8567V24.2093ZM58.0893 16.5349H58.787V17.2326H58.0893V16.5349ZM68.5544 17.2326H69.2521V17.9302H68.5544V17.2326ZM67.8567 17.2326H68.5544V17.9302H67.8567V17.2326ZM62.2753 24.2093H62.973V24.907H62.2753V24.2093ZM68.5544 16.5349H69.2521V17.2326H68.5544V16.5349ZM63.6707 17.2326H64.3683V17.9302H63.6707V17.2326ZM62.973 17.2326H63.6707V17.9302H62.973V17.2326ZM62.2753 17.2326H62.973V17.9302H62.2753V17.2326ZM63.6707 24.907H64.3683V25.6047H63.6707V24.907ZM58.0893 24.907H58.787V25.6047H58.0893V24.907ZM59.4846 26.3023H60.1823V27H59.4846V26.3023ZM65.066 26.3023H65.7637V27H65.066V26.3023ZM58.787 15.8372H59.4846V16.5349H58.787V15.8372ZM59.4846 15.1395H60.1823V15.8372H59.4846V15.1395ZM72.7507 17.9302H73.4483V18.6279H72.7507V17.9302ZM73.4483 17.9302H74.146V18.6279H73.4483V17.9302ZM73.4483 18.6279H74.146V19.3256H73.4483V18.6279ZM74.146 17.9302H74.8437V18.6279H74.146V17.9302ZM72.053 17.9302H72.7507V18.6279H72.053V17.9302ZM72.053 18.6279H72.7507V19.3256H72.053V18.6279ZM72.053 20.0233H72.7507V20.7209H72.053V20.0233ZM72.053 20.7209H72.7507V21.4186H72.053V20.7209ZM72.053 21.4186H72.7507V22.1163H72.053V21.4186ZM72.053 22.1163H72.7507V22.814H72.053V22.1163ZM72.053 22.814H72.7507V23.5116H72.053V22.814ZM72.053 23.5116H72.7507V24.2093H72.053V23.5116ZM72.7507 23.5116H73.4483V24.2093H72.7507V23.5116ZM73.4483 23.5116H74.146V24.2093H73.4483V23.5116ZM73.4483 22.814H74.146V23.5116H73.4483V22.814ZM74.146 22.814H74.8437V23.5116H74.146V22.814ZM74.146 22.1163H74.8437V22.814H74.146V22.1163ZM74.146 20.7209H74.8437V21.4186H74.146V20.7209ZM74.146 20.0233H74.8437V20.7209H74.146V20.0233ZM74.146 19.3256H74.8437V20.0233H74.146V19.3256ZM74.146 18.6279H74.8437V19.3256H74.146V18.6279ZM73.4483 19.3256H74.146V20.0233H73.4483V19.3256ZM73.4483 20.0233H74.146V20.7209H73.4483V20.0233ZM73.4483 20.7209H74.146V21.4186H73.4483V20.7209ZM73.4483 21.4186H74.146V22.1163H73.4483V21.4186ZM73.4483 22.1163H74.146V22.814H73.4483V22.1163ZM74.146 21.4186H74.8437V22.1163H74.146V21.4186ZM72.7507 21.4186H73.4483V22.1163H72.7507V21.4186ZM72.7507 20.7209H73.4483V21.4186H72.7507V20.7209ZM72.7507 20.0233H73.4483V20.7209H72.7507V20.0233ZM72.7507 19.3256H73.4483V20.0233H72.7507V19.3256ZM72.7507 18.6279H73.4483V19.3256H72.7507V18.6279ZM72.053 19.3256H72.7507V20.0233H72.053V19.3256ZM72.7507 22.1163H73.4483V22.814H72.7507V22.1163ZM72.7507 22.814H73.4483V23.5116H72.7507V22.814ZM71.3553 24.907H72.053V25.6047H71.3553V24.907ZM70.6576 24.907H71.3553V25.6047H70.6576V24.907ZM70.6576 24.2093H71.3553V24.907H70.6576V24.2093ZM71.3553 24.2093H72.053V24.907H71.3553V24.2093ZM72.053 24.2093H72.7507V24.907H72.053V24.2093ZM72.053 24.907H72.7507V25.6047H72.053V24.907ZM72.7507 24.907H73.4483V25.6047H72.7507V24.907ZM73.4483 24.907H74.146V25.6047H73.4483V24.907ZM74.146 24.907H74.8437V25.6047H74.146V24.907ZM74.146 24.2093H74.8437V24.907H74.146V24.2093ZM74.146 23.5116H74.8437V24.2093H74.146V23.5116ZM73.4483 24.2093H74.146V24.907H73.4483V24.2093ZM72.7507 24.2093H73.4483V24.907H72.7507V24.2093ZM73.4483 25.6047H74.146V26.3023H73.4483V25.6047ZM73.4483 26.3023H74.146V27H73.4483V26.3023ZM74.146 26.3023H74.8437V27H74.146V26.3023ZM74.146 25.6047H74.8437V26.3023H74.146V25.6047ZM74.8437 24.907H75.5414V25.6047H74.8437V24.907ZM74.8437 24.2093H75.5414V24.907H74.8437V24.2093ZM75.5414 24.2093H76.239V24.907H75.5414V24.2093ZM75.5414 24.907H76.239V25.6047H75.5414V24.907ZM75.5414 25.6047H76.239V26.3023H75.5414V25.6047ZM75.5414 26.3023H76.239V27H75.5414V26.3023ZM74.8437 26.3023H75.5414V27H74.8437V26.3023ZM74.8437 25.6047H75.5414V26.3023H74.8437V25.6047ZM76.239 24.2093H76.9367V24.907H76.239V24.2093ZM76.9367 24.2093H77.6344V24.907H76.9367V24.2093ZM76.9367 24.907H77.6344V25.6047H76.9367V24.907ZM76.239 24.907H76.9367V25.6047H76.239V24.907ZM77.6344 24.2093H78.3321V24.907H77.6344V24.2093ZM78.3321 24.2093H79.0297V24.907H78.3321V24.2093ZM77.6344 24.907H78.3321V25.6047H77.6344V24.907ZM77.6344 23.5116H78.3321V24.2093H77.6344V23.5116ZM77.6344 22.814H78.3321V23.5116H77.6344V22.814ZM78.3321 22.814H79.0297V23.5116H78.3321V22.814ZM78.3321 23.5116H79.0297V24.2093H78.3321V23.5116ZM79.0297 22.814H79.7274V23.5116H79.0297V22.814ZM79.7274 22.1163H80.4251V22.814H79.7274V22.1163ZM79.7274 21.4186H80.4251V22.1163H79.7274V21.4186ZM79.7274 20.7209H80.4251V21.4186H79.7274V20.7209ZM79.0297 20.7209H79.7274V21.4186H79.0297V20.7209ZM78.3321 20.7209H79.0297V21.4186H78.3321V20.7209ZM78.3321 21.4186H79.0297V22.1163H78.3321V21.4186ZM77.6344 21.4186H78.3321V22.1163H77.6344V21.4186ZM77.6344 22.1163H78.3321V22.814H77.6344V22.1163ZM78.3321 22.1163H79.0297V22.814H78.3321V22.1163ZM79.0297 22.1163H79.7274V22.814H79.0297V22.1163ZM79.0297 21.4186H79.7274V22.1163H79.0297V21.4186ZM77.6344 20.7209H78.3321V21.4186H77.6344V20.7209ZM77.6344 20.0233H78.3321V20.7209H77.6344V20.0233ZM78.3321 20.0233H79.0297V20.7209H78.3321V20.0233ZM78.3321 19.3256H79.0297V20.0233H78.3321V19.3256ZM79.0297 19.3256H79.7274V20.0233H79.0297V19.3256ZM79.7274 19.3256H80.4251V20.0233H79.7274V19.3256ZM79.7274 20.0233H80.4251V20.7209H79.7274V20.0233ZM79.0297 20.0233H79.7274V20.7209H79.0297V20.0233ZM77.6344 19.3256H78.3321V20.0233H77.6344V19.3256ZM77.6344 18.6279H78.3321V19.3256H77.6344V18.6279ZM78.3321 18.6279H79.0297V19.3256H78.3321V18.6279ZM78.3321 17.9302H79.0297V18.6279H78.3321V17.9302ZM79.0297 17.9302H79.7274V18.6279H79.0297V17.9302ZM79.7274 17.9302H80.4251V18.6279H79.7274V17.9302ZM79.7274 18.6279H80.4251V19.3256H79.7274V18.6279ZM79.0297 18.6279H79.7274V19.3256H79.0297V18.6279ZM77.6344 17.9302H78.3321V18.6279H77.6344V17.9302ZM74.8437 15.1395H75.5414V15.8372H74.8437V15.1395ZM74.8437 15.8372H75.5414V16.5349H74.8437V15.8372ZM75.5414 15.8372H76.239V16.5349H75.5414V15.8372ZM75.5414 15.1395H76.239V15.8372H75.5414V15.1395ZM74.146 16.5349H74.8437V17.2326H74.146V16.5349ZM73.4483 16.5349H74.146V17.2326H73.4483V16.5349ZM74.146 17.2326H74.8437V17.9302H74.146V17.2326ZM73.4483 17.2326H74.146V17.9302H73.4483V17.2326ZM76.239 16.5349H76.9367V17.2326H76.239V16.5349ZM76.9367 17.2326H77.6344V17.9302H76.9367V17.2326ZM76.9367 16.5349H77.6344V17.2326H76.9367V16.5349ZM76.239 15.1395H76.9367V15.8372H76.239V15.1395ZM76.9367 15.1395H77.6344V15.8372H76.9367V15.1395ZM76.9367 15.8372H77.6344V16.5349H76.9367V15.8372ZM76.239 15.8372H76.9367V16.5349H76.239V15.8372ZM77.6344 15.1395H78.3321V15.8372H77.6344V15.1395ZM78.3321 15.1395H79.0297V15.8372H78.3321V15.1395ZM78.3321 15.8372H79.0297V16.5349H78.3321V15.8372ZM77.6344 15.8372H78.3321V16.5349H77.6344V15.8372ZM80.4251 17.2326H81.1228V17.9302H80.4251V17.2326ZM80.4251 16.5349H81.1228V17.2326H80.4251V16.5349ZM81.1228 16.5349H81.8204V17.2326H81.1228V16.5349ZM81.1228 17.2326H81.8204V17.9302H81.1228V17.2326ZM79.7274 16.5349H80.4251V17.2326H79.7274V16.5349ZM79.0297 16.5349H79.7274V17.2326H79.0297V16.5349ZM78.3321 16.5349H79.0297V17.2326H78.3321V16.5349ZM77.6344 16.5349H78.3321V17.2326H77.6344V16.5349ZM78.3321 17.2326H79.0297V17.9302H78.3321V17.2326ZM79.0297 17.2326H79.7274V17.9302H79.0297V17.2326ZM79.7274 17.2326H80.4251V17.9302H79.7274V17.2326ZM77.6344 17.2326H78.3321V17.9302H77.6344V17.2326ZM72.7507 25.6047H73.4483V26.3023H72.7507V25.6047ZM79.0297 15.8372H79.7274V16.5349H79.0297V15.8372ZM72.7507 17.2326H73.4483V17.9302H72.7507V17.2326ZM76.239 25.6047H76.9367V26.3023H76.239V25.6047ZM79.0297 23.5116H79.7274V24.2093H79.0297V23.5116ZM79.7274 22.814H80.4251V23.5116H79.7274V22.814ZM76.9367 25.6047H77.6344V26.3023H76.9367V25.6047ZM76.239 26.3023H76.9367V27H76.239V26.3023ZM74.146 15.8372H74.8437V16.5349H74.146V15.8372ZM85.319 26.3023H86.0167V27H85.319V26.3023ZM86.0167 26.3023H86.7144V27H86.0167V26.3023ZM84.6213 25.6047H85.319V26.3023H84.6213V25.6047ZM85.319 25.6047H86.0167V26.3023H85.319V25.6047ZM86.0167 25.6047H86.7144V26.3023H86.0167V25.6047ZM86.7144 25.6047H87.412V26.3023H86.7144V25.6047ZM83.9237 24.907H84.6213V25.6047H83.9237V24.907ZM84.6213 24.907H85.319V25.6047H84.6213V24.907ZM84.6213 24.2093H85.319V24.907H84.6213V24.2093ZM85.319 24.2093H86.0167V24.907H85.319V24.2093ZM85.319 24.907H86.0167V25.6047H85.319V24.907ZM86.0167 24.907H86.7144V25.6047H86.0167V24.907ZM86.7144 24.907H87.412V25.6047H86.7144V24.907ZM86.7144 24.2093H87.412V24.907H86.7144V24.2093ZM86.0167 24.2093H86.7144V24.907H86.0167V24.2093ZM85.319 23.5116H86.0167V24.2093H85.319V23.5116ZM86.0167 23.5116H86.7144V24.2093H86.0167V23.5116ZM86.7144 23.5116H87.412V24.2093H86.7144V23.5116ZM86.7144 22.814H87.412V23.5116H86.7144V22.814ZM86.0167 22.814H86.7144V23.5116H86.0167V22.814ZM85.319 22.814H86.0167V23.5116H85.319V22.814ZM85.319 22.1163H86.0167V22.814H85.319V22.1163ZM85.319 21.4186H86.0167V22.1163H85.319V21.4186ZM85.319 20.7209H86.0167V21.4186H85.319V20.7209ZM85.319 20.0233H86.0167V20.7209H85.319V20.0233ZM85.319 19.3256H86.0167V20.0233H85.319V19.3256ZM86.0167 19.3256H86.7144V20.0233H86.0167V19.3256ZM86.7144 19.3256H87.412V20.0233H86.7144V19.3256ZM86.7144 20.0233H87.412V20.7209H86.7144V20.0233ZM86.7144 20.7209H87.412V21.4186H86.7144V20.7209ZM86.7144 21.4186H87.412V22.1163H86.7144V21.4186ZM86.0167 21.4186H86.7144V22.1163H86.0167V21.4186ZM86.0167 22.1163H86.7144V22.814H86.0167V22.1163ZM86.0167 20.7209H86.7144V21.4186H86.0167V20.7209ZM86.0167 20.0233H86.7144V20.7209H86.0167V20.0233ZM86.7144 22.1163H87.412V22.814H86.7144V22.1163ZM86.7144 18.6279H87.412V19.3256H86.7144V18.6279ZM86.7144 17.9302H87.412V18.6279H86.7144V17.9302ZM86.7144 17.2326H87.412V17.9302H86.7144V17.2326ZM86.7144 16.5349H87.412V17.2326H86.7144V16.5349ZM86.7144 15.8372H87.412V16.5349H86.7144V15.8372ZM85.319 15.8372H86.0167V16.5349H85.319V15.8372ZM86.0167 16.5349H86.7144V17.2326H86.0167V16.5349ZM86.0167 17.2326H86.7144V17.9302H86.0167V17.2326ZM86.0167 17.9302H86.7144V18.6279H86.0167V17.9302ZM86.0167 18.6279H86.7144V19.3256H86.0167V18.6279ZM85.319 18.6279H86.0167V19.3256H85.319V18.6279ZM85.319 17.9302H86.0167V18.6279H85.319V17.9302ZM85.319 17.2326H86.0167V17.9302H85.319V17.2326ZM85.319 16.5349H86.0167V17.2326H85.319V16.5349ZM86.0167 15.8372H86.7144V16.5349H86.0167V15.8372ZM84.6213 23.5116H85.319V24.2093H84.6213V23.5116ZM84.6213 22.814H85.319V23.5116H84.6213V22.814ZM84.6213 22.1163H85.319V22.814H84.6213V22.1163ZM84.6213 21.4186H85.319V22.1163H84.6213V21.4186ZM84.6213 20.7209H85.319V21.4186H84.6213V20.7209ZM84.6213 20.0233H85.319V20.7209H84.6213V20.0233ZM84.6213 19.3256H85.319V20.0233H84.6213V19.3256ZM84.6213 18.6279H85.319V19.3256H84.6213V18.6279ZM84.6213 17.9302H85.319V18.6279H84.6213V17.9302ZM84.6213 17.2326H85.319V17.9302H84.6213V17.2326ZM84.6213 15.8372H85.319V16.5349H84.6213V15.8372ZM84.6213 16.5349H85.319V17.2326H84.6213V16.5349ZM88.1097 24.2093H88.8074V24.907H88.1097V24.2093ZM85.319 15.1395H86.0167V15.8372H85.319V15.1395ZM86.0167 15.1395H86.7144V15.8372H86.0167V15.1395ZM84.6213 12.3488H85.319V13.0465H84.6213V12.3488ZM85.319 12.3488H86.0167V13.0465H85.319V12.3488ZM86.0167 12.3488H86.7144V13.0465H86.0167V12.3488ZM86.7144 12.3488H87.412V13.0465H86.7144V12.3488ZM86.7144 11.6512H87.412V12.3488H86.7144V11.6512ZM86.7144 10.9535H87.412V11.6512H86.7144V10.9535ZM86.7144 10.2558H87.412V10.9535H86.7144V10.2558ZM86.0167 10.2558H86.7144V10.9535H86.0167V10.2558ZM85.319 10.2558H86.0167V10.9535H85.319V10.2558ZM84.6213 10.2558H85.319V10.9535H84.6213V10.2558ZM84.6213 10.9535H85.319V11.6512H84.6213V10.9535ZM84.6213 11.6512H85.319V12.3488H84.6213V11.6512ZM85.319 11.6512H86.0167V12.3488H85.319V11.6512ZM86.0167 11.6512H86.7144V12.3488H86.0167V11.6512ZM86.0167 10.9535H86.7144V11.6512H86.0167V10.9535ZM85.319 10.9535H86.0167V11.6512H85.319V10.9535ZM87.412 24.907H88.1097V25.6047H87.412V24.907ZM83.9237 16.5349H84.6213V17.2326H83.9237V16.5349ZM83.226 16.5349H83.9237V17.2326H83.226V16.5349ZM83.226 17.2326H83.9237V17.9302H83.226V17.2326ZM83.9237 17.2326H84.6213V17.9302H83.9237V17.2326ZM87.412 16.5349H88.1097V17.2326H87.412V16.5349ZM88.1097 16.5349H88.8074V17.2326H88.1097V16.5349ZM88.1097 17.2326H88.8074V17.9302H88.1097V17.2326ZM87.412 17.2326H88.1097V17.9302H87.412V17.2326ZM83.226 24.2093H83.9237V24.907H83.226V24.2093ZM83.9237 24.2093H84.6213V24.907H83.9237V24.2093ZM87.412 24.2093H88.1097V24.907H87.412V24.2093ZM83.226 24.907H83.9237V25.6047H83.226V24.907ZM84.6213 26.3023H85.319V27H84.6213V26.3023ZM92.2917 17.9302H92.9893V18.6279H92.2917V17.9302ZM92.9893 17.9302H93.687V18.6279H92.9893V17.9302ZM92.9893 18.6279H93.687V19.3256H92.9893V18.6279ZM93.687 17.9302H94.3847V18.6279H93.687V17.9302ZM91.594 17.9302H92.2917V18.6279H91.594V17.9302ZM91.594 18.6279H92.2917V19.3256H91.594V18.6279ZM91.594 20.0233H92.2917V20.7209H91.594V20.0233ZM91.594 20.7209H92.2917V21.4186H91.594V20.7209ZM91.594 21.4186H92.2917V22.1163H91.594V21.4186ZM91.594 22.1163H92.2917V22.814H91.594V22.1163ZM91.594 22.814H92.2917V23.5116H91.594V22.814ZM91.594 23.5116H92.2917V24.2093H91.594V23.5116ZM92.2917 23.5116H92.9893V24.2093H92.2917V23.5116ZM92.9893 23.5116H93.687V24.2093H92.9893V23.5116ZM92.9893 22.814H93.687V23.5116H92.9893V22.814ZM93.687 22.814H94.3847V23.5116H93.687V22.814ZM93.687 22.1163H94.3847V22.814H93.687V22.1163ZM93.687 20.7209H94.3847V21.4186H93.687V20.7209ZM93.687 20.0233H94.3847V20.7209H93.687V20.0233ZM93.687 19.3256H94.3847V20.0233H93.687V19.3256ZM93.687 18.6279H94.3847V19.3256H93.687V18.6279ZM92.9893 19.3256H93.687V20.0233H92.9893V19.3256ZM92.9893 20.0233H93.687V20.7209H92.9893V20.0233ZM92.9893 20.7209H93.687V21.4186H92.9893V20.7209ZM92.9893 21.4186H93.687V22.1163H92.9893V21.4186ZM92.9893 22.1163H93.687V22.814H92.9893V22.1163ZM93.687 21.4186H94.3847V22.1163H93.687V21.4186ZM92.2917 21.4186H92.9893V22.1163H92.2917V21.4186ZM92.2917 20.7209H92.9893V21.4186H92.2917V20.7209ZM92.2917 20.0233H92.9893V20.7209H92.2917V20.0233ZM92.2917 19.3256H92.9893V20.0233H92.2917V19.3256ZM92.2917 18.6279H92.9893V19.3256H92.2917V18.6279ZM91.594 19.3256H92.2917V20.0233H91.594V19.3256ZM92.2917 22.1163H92.9893V22.814H92.2917V22.1163ZM92.2917 22.814H92.9893V23.5116H92.2917V22.814ZM90.8963 24.907H91.594V25.6047H90.8963V24.907ZM90.1987 24.907H90.8963V25.6047H90.1987V24.907ZM90.1987 24.2093H90.8963V24.907H90.1987V24.2093ZM90.8963 24.2093H91.594V24.907H90.8963V24.2093ZM91.594 24.2093H92.2917V24.907H91.594V24.2093ZM91.594 24.907H92.2917V25.6047H91.594V24.907ZM92.2917 24.907H92.9893V25.6047H92.2917V24.907ZM92.9893 24.907H93.687V25.6047H92.9893V24.907ZM93.687 24.907H94.3847V25.6047H93.687V24.907ZM93.687 24.2093H94.3847V24.907H93.687V24.2093ZM93.687 23.5116H94.3847V24.2093H93.687V23.5116ZM92.9893 24.2093H93.687V24.907H92.9893V24.2093ZM92.2917 24.2093H92.9893V24.907H92.2917V24.2093ZM92.9893 25.6047H93.687V26.3023H92.9893V25.6047ZM92.9893 26.3023H93.687V27H92.9893V26.3023ZM93.687 26.3023H94.3847V27H93.687V26.3023ZM93.687 25.6047H94.3847V26.3023H93.687V25.6047ZM94.3847 24.907H95.0824V25.6047H94.3847V24.907ZM94.3847 24.2093H95.0824V24.907H94.3847V24.2093ZM95.0824 24.2093H95.78V24.907H95.0824V24.2093ZM95.0824 24.907H95.78V25.6047H95.0824V24.907ZM95.0824 25.6047H95.78V26.3023H95.0824V25.6047ZM95.0824 26.3023H95.78V27H95.0824V26.3023ZM94.3847 26.3023H95.0824V27H94.3847V26.3023ZM94.3847 25.6047H95.0824V26.3023H94.3847V25.6047ZM95.78 24.2093H96.4777V24.907H95.78V24.2093ZM96.4777 24.2093H97.1754V24.907H96.4777V24.2093ZM96.4777 24.907H97.1754V25.6047H96.4777V24.907ZM95.78 24.907H96.4777V25.6047H95.78V24.907ZM97.1754 24.2093H97.8731V24.907H97.1754V24.2093ZM97.8731 24.2093H98.5707V24.907H97.8731V24.2093ZM97.1754 24.907H97.8731V25.6047H97.1754V24.907ZM97.1754 23.5116H97.8731V24.2093H97.1754V23.5116ZM97.1754 22.814H97.8731V23.5116H97.1754V22.814ZM97.8731 22.814H98.5707V23.5116H97.8731V22.814ZM97.8731 23.5116H98.5707V24.2093H97.8731V23.5116ZM98.5707 22.814H99.2684V23.5116H98.5707V22.814ZM99.2684 22.1163H99.9661V22.814H99.2684V22.1163ZM99.2684 21.4186H99.9661V22.1163H99.2684V21.4186ZM99.2684 20.7209H99.9661V21.4186H99.2684V20.7209ZM98.5707 20.7209H99.2684V21.4186H98.5707V20.7209ZM97.8731 20.7209H98.5707V21.4186H97.8731V20.7209ZM97.8731 21.4186H98.5707V22.1163H97.8731V21.4186ZM97.1754 21.4186H97.8731V22.1163H97.1754V21.4186ZM97.1754 22.1163H97.8731V22.814H97.1754V22.1163ZM97.8731 22.1163H98.5707V22.814H97.8731V22.1163ZM98.5707 22.1163H99.2684V22.814H98.5707V22.1163ZM98.5707 21.4186H99.2684V22.1163H98.5707V21.4186ZM97.1754 20.7209H97.8731V21.4186H97.1754V20.7209ZM97.1754 20.0233H97.8731V20.7209H97.1754V20.0233ZM97.8731 20.0233H98.5707V20.7209H97.8731V20.0233ZM97.8731 19.3256H98.5707V20.0233H97.8731V19.3256ZM98.5707 19.3256H99.2684V20.0233H98.5707V19.3256ZM99.2684 19.3256H99.9661V20.0233H99.2684V19.3256ZM99.2684 20.0233H99.9661V20.7209H99.2684V20.0233ZM98.5707 20.0233H99.2684V20.7209H98.5707V20.0233ZM97.1754 19.3256H97.8731V20.0233H97.1754V19.3256ZM97.1754 18.6279H97.8731V19.3256H97.1754V18.6279ZM97.8731 18.6279H98.5707V19.3256H97.8731V18.6279ZM97.8731 17.9302H98.5707V18.6279H97.8731V17.9302ZM98.5707 17.9302H99.2684V18.6279H98.5707V17.9302ZM99.2684 17.9302H99.9661V18.6279H99.2684V17.9302ZM99.2684 18.6279H99.9661V19.3256H99.2684V18.6279ZM98.5707 18.6279H99.2684V19.3256H98.5707V18.6279ZM97.1754 17.9302H97.8731V18.6279H97.1754V17.9302ZM94.3847 15.1395H95.0824V15.8372H94.3847V15.1395ZM94.3847 15.8372H95.0824V16.5349H94.3847V15.8372ZM95.0824 15.8372H95.78V16.5349H95.0824V15.8372ZM95.0824 15.1395H95.78V15.8372H95.0824V15.1395ZM93.687 16.5349H94.3847V17.2326H93.687V16.5349ZM92.9893 16.5349H93.687V17.2326H92.9893V16.5349ZM93.687 17.2326H94.3847V17.9302H93.687V17.2326ZM92.9893 17.2326H93.687V17.9302H92.9893V17.2326ZM95.78 15.1395H96.4777V15.8372H95.78V15.1395ZM96.4777 15.1395H97.1754V15.8372H96.4777V15.1395ZM96.4777 15.8372H97.1754V16.5349H96.4777V15.8372ZM95.78 15.8372H96.4777V16.5349H95.78V15.8372ZM97.1754 15.1395H97.8731V15.8372H97.1754V15.1395ZM97.8731 15.1395H98.5707V15.8372H97.8731V15.1395ZM97.8731 15.8372H98.5707V16.5349H97.8731V15.8372ZM97.1754 15.8372H97.8731V16.5349H97.1754V15.8372ZM99.9661 17.2326H100.664V17.9302H99.9661V17.2326ZM99.9661 16.5349H100.664V17.2326H99.9661V16.5349ZM100.664 16.5349H101.361V17.2326H100.664V16.5349ZM100.664 17.2326H101.361V17.9302H100.664V17.2326ZM99.2684 16.5349H99.9661V17.2326H99.2684V16.5349ZM98.5707 16.5349H99.2684V17.2326H98.5707V16.5349ZM97.8731 16.5349H98.5707V17.2326H97.8731V16.5349ZM97.1754 16.5349H97.8731V17.2326H97.1754V16.5349ZM97.8731 17.2326H98.5707V17.9302H97.8731V17.2326ZM98.5707 17.2326H99.2684V17.9302H98.5707V17.2326ZM99.2684 17.2326H99.9661V17.9302H99.2684V17.2326ZM97.1754 17.2326H97.8731V17.9302H97.1754V17.2326ZM92.2917 25.6047H92.9893V26.3023H92.2917V25.6047ZM98.5707 15.8372H99.2684V16.5349H98.5707V15.8372ZM92.2917 17.2326H92.9893V17.9302H92.2917V17.2326ZM95.78 25.6047H96.4777V26.3023H95.78V25.6047ZM98.5707 23.5116H99.2684V24.2093H98.5707V23.5116ZM99.2684 22.814H99.9661V23.5116H99.2684V22.814ZM99.2684 23.5116H99.9661V24.2093H99.2684V23.5116ZM99.2684 24.2093H99.9661V24.907H99.2684V24.2093ZM98.5707 24.2093H99.2684V24.907H98.5707V24.2093ZM99.9661 24.2093H100.664V24.907H99.9661V24.2093ZM100.664 24.2093H101.361V24.907H100.664V24.2093ZM100.664 24.907H101.361V25.6047H100.664V24.907ZM99.9661 24.907H100.664V25.6047H99.9661V24.907ZM98.5707 24.907H99.2684V25.6047H98.5707V24.907ZM97.8731 24.907H98.5707V25.6047H97.8731V24.907ZM99.2684 24.907H99.9661V25.6047H99.2684V24.907ZM98.5707 25.6047H99.2684V26.3023H98.5707V25.6047ZM97.8731 25.6047H98.5707V26.3023H97.8731V25.6047ZM99.2684 25.6047H99.9661V26.3023H99.2684V25.6047ZM99.9661 25.6047H100.664V26.3023H99.9661V25.6047ZM99.2684 26.3023H99.9661V27H99.2684V26.3023ZM97.8731 26.3023H98.5707V27H97.8731V26.3023ZM98.5707 26.3023H99.2684V27H98.5707V26.3023ZM93.687 15.8372H94.3847V16.5349H93.687V15.8372Z" fill="white"/>
</g>
<defs>
<filter id="filter0_d_0_1" x="0.628326" y="0.255814" width="110.733" height="40.9302" filterUnits="userSpaceOnUse" color-interpolation-filters="sRGB">
<feFlood flood-opacity="0" result="BackgroundImageFix"/>
<feColorMatrix in="SourceAlpha" type="matrix" values="0 0 0 0 0 0 0 0 0 0 0 0 0 0 0 0 0 0 127 0" result="hardAlpha"/>
<feOffset/>
<feGaussianBlur stdDeviation="5"/>
<feComposite in2="hardAlpha" operator="out"/>
<feColorMatrix type="matrix" values="0 0 0 0 1 0 0 0 0 1 0 0 0 0 1 0 0 0 0.4 0"/>
<feBlend mode="normal" in2="BackgroundImageFix" result="effect1_dropShadow_0_1"/>
<feBlend mode="normal" in="SourceGraphic" in2="effect1_dropShadow_0_1" result="shape"/>
</filter>
</defs>
</svg>
